<!-- Handmade by Hela Alvarez, helart.es --><svg id="exca_prime" data-name="Excalibur Prime" xmlns="http://www.w3.org/2000/svg" viewBox="0 0 426.86 627.28"><defs><style>.cls-1,.cls-2,.cls-3,.cls-6{fill:none;}.cls-1,.cls-2,.cls-3,.cls-4,.cls-5{stroke:#000;}.cls-1,.cls-2,.cls-3,.cls-4,.cls-5,.cls-6,.cls-7{stroke-miterlimit:10;}.cls-1{stroke-width:3px;}.cls-3,.cls-6,.cls-7{stroke-width:2px;}.cls-4{fill:aqua;}.cls-5,.cls-7{fill:#fff;}.cls-6,.cls-7{stroke:#226cff;}.cls-8{fill:#226cff;}</style></defs><title>exca_prime_404</title><path class="cls-1" d="M404.42,87c-5.24-2.62-44.55,6.11-72.93,24.46,0,0,5,6.8,8.73,18.77,15.72-3.49,53.72-9.17,84.73-9.39C421.89,108.37,409.23,88.29,404.42,87Z"/><path class="cls-1" d="M355.07,52.26c4.7-38.87-45.64-58.31-78.18-48,2.74,11.7,4.18,17.81,6.34,31,9.71-4.14,33.73-1.42,31.44,18.13-4,18.34-24.67,15.94-31,11.14-3.49,8.29-9.39,24.23-9.39,24.23l19.22,7.65L304,81.08C304.52,80.43,347.21,88.51,355.07,52.26Z"/><path class="cls-1" d="M229.53,110.15a21.71,21.71,0,0,0,.78-4c.61-4.09-1.6-11.05-6.7-8.43a22.29,22.29,0,0,0-5,3.84l-.26-.2L208,91.78s-2.46-3.49-10.9-4.37l-15.58-1.6a4.68,4.68,0,0,0-3.54.71c-.76.57-2.08,3.28-2.14,3.08-2-.88-3.4,1.67-3.64,4.51a11.22,11.22,0,0,0,1.19,4.41c-.27.69-.57,1.4-.89,2.13-1.43-1.89-6.32-4.23-3,6.42-1.33,2.59-2.84,5.25-4.51,7.87-1.05-2.5-6.58-3.65-3.82,4.9.06.12.12.23.17.35-.31.41-.62.82-.94,1.22,0,0-11.89-11-21.79-17.84s-36.68-28.09-109.18-30C28.1,89.16,24.6,90,34.79,115.37a52.82,52.82,0,0,1,2.06,6.32c-2.49,2.56-6.28,11.29-7.07,14.49,0,0-3.81,5.82-7,9.59-2.09,2-6.61,6.91-5,11.47,6.69,19.71,4.21,31.64,18.8,47,0,0-8.86,5.07-14,6.5-7.28-1.89-19.8-2.62-19.8-2.62s3.78,8.15,4.07,10.77c1,1,6.35,5.21,14.58,10.29C14.86,240.29,8.54,253.74,5.9,262.4A19.61,19.61,0,0,0,5,269.86s-7.65,15.61-.37,27.24L2.77,299a34.54,34.54,0,0,1,2.69,11.06c.22,5.54-.44,6.85,3.28,9.25.75.49,1.37.92,1.92,1.3,0,0-.67,9.83,6.84,13.59a12.53,12.53,0,0,0-1.78,7.6s.44,9.83-2,13.33-2.12,14.41,2,20.3c.31.46.58.84.82,1.18-.29.07-4.62,1.09-4.34,1.52A40.85,40.85,0,0,1,15,396.19a20.57,20.57,0,0,0,2,10.49s-3.06,1.16-2,6.4c.88,4.55,1.11,12.95,4.59,17.17h0s-3.87,1.17-3.72,2.19c-1.08,1.89,1.16,5.82,0,8.3s2.91,4.65,3.06,8.29a14,14,0,0,1-.44,5.1c-8.59,4.22-6.7,7.86-7.13,11.35-3.4.94-.2,7.41,5.53,38,0,0-3.35,1-.87,4.66-2.33,2.47-4.23,4.28-7.72,4.76-.73,1.79,0,2.66,0,2.66l19.42,36.53a10.36,10.36,0,0,0,2.13,8.9c3.14,3.53,6.4,11,7,12.41l-.62.83c-3.93,4.52,14.7,33.49,20.09,40.33S74,628.68,83,624.6s9-12.81,8-15-2.77-2.91-6-3.5C81.38,603.06,71,569.62,71,569.62a6.46,6.46,0,0,0,1.4-1.94c-4.36-5.09-1.89-17-2.18-32.61-.15-8-1.65-13.1-3.91-17.51-2.17-4.23,1.29-9.71,1.29-9.71s6,3.35,6.26,4.22c1.44,1.13,3.83,3.13,6.33.82h0s7.43,6.89,8.08,10.16c-1.74,1.68-1.74,1.68,1.17,4.88s15,16,18.78,17.9c.87,1.9,10.92,13.4,14.41,16.75-.87,1-.73.87,1.31,1.89,5.39,3.35,18.2,17.63,24.17,20.32l1.45-.23s15.87,7,22.28.23,11.5-12.61,2-15.81-24-19.36-24-19.36,1.17-.44-.14-2.33c-.58-3.2-18.49-29.26-25.77-37.7s-8.3-25.63-8.3-25.63l-3.35-1.74s4.81-6.85,4.08-12.09c-.7-5.06-8.33-7-11.54-5.61,1.47-5,2.55-11.35,2.55-11.35s-5.35-13-2.29-23.91,1.09-15.72,1.09-15.72c6.71-13.58,6.14-21.67,6.14-21.67,11.53-18.13,11.33-23.75,11.33-23.75,9.83-1.75,15-5.13,15-5.13l11.19-10.39c1.22.37,1.92.63,1.92.63,2.54,2.18,4.07-4.07,8.77-8.88a2.42,2.42,0,0,0,.7-2.24c1.78-.64,17.83-7.19,21.68-34a165.32,165.32,0,0,1,4.48-20.26c1.84,1.37,7.17,5.3,9.06,3.81,2-1.6.14-6.69-1.17-10.77a21.89,21.89,0,0,0,6.12-10.19c3.16,1.44,10.33,3.2,11.64-2,1-6-3.34-7.13-7.86-9.39a39.44,39.44,0,0,0,1.46-8.95s5.09.14,4.66-4.22-5.24-4.95-5.24-4.95c-.24-1.08-.51-2.18-.81-3.26.42-1,.66-1.55.66-1.55,4.9-14.2,5.68-19.21,7-31.15,0,0,.44-7.29,2.31-18.91a23.84,23.84,0,0,0,6-9.92c1.51-5.79.16-8.57-2.32-9a277.67,277.67,0,0,1,12.8-41.49c4.07,1.16,5.82-8.74,4.37-10.34C235.43,114.9,232.69,112.66,229.53,110.15ZM59.83,305.23s-9.51-3.55-15.24,3.17c.53-2.36-3.37-3.86-6.26-11.3H37.16c3.31-4,.26-17.74.26-17.74s17.11-26.64,20.7-32.77c1.68.56.11,0,.11,0s-.36,12-5.38,19c-1.17,2.62-.66,5,1.74,7.87a43.44,43.44,0,0,1,4.81,8.07s2.18,5,9.46,8.08c-2.57,2.76-3.8,8.26-4.44,12.28C63.92,303.35,62.68,304.17,59.83,305.23Z"/><path class="cls-1" d="M36.87,573.4l.11.25Z"/><circle class="cls-1" cx="272.09" cy="113.12" r="16.16"/><circle class="cls-1" cx="314.83" cy="139.68" r="16.16"/><path d="M140.12,137.05c1.12-.49,2.23-1,3.32-1.46a11.81,11.81,0,0,1,1.62-.75,10.77,10.77,0,0,1,1.78-.41l.06.08a4,4,0,0,1-1.44,1.24,7.22,7.22,0,0,1-1.75.59,33.29,33.29,0,0,1-3.56.8Z"/><path class="cls-2" d="M151.9,130.8a29.78,29.78,0,0,0,2.78-2.22"/><path class="cls-2" d="M159,124.54a35.77,35.77,0,0,0,2.56-3"/><path class="cls-2" d="M165.25,116.94a46.23,46.23,0,0,0,4.64-7.42"/><path class="cls-3" d="M331.49,111.44s5,6.8,8.73,18.77c15.72-3.49,53.72-9.17,84.73-9.39-3.06-12.45-15.72-32.53-20.53-33.84C399.18,84.36,359.87,93.09,331.49,111.44Z"/><path class="cls-1" d="M274.27,88.72l19.22,7.65L304,81.08c.55-.65,43.24,7.43,51.1-28.82,4.7-38.87-45.64-58.31-78.18-48,2.74,11.7,4.18,17.81,6.34,31,9.71-4.14,33.73-1.42,31.44,18.13-4,18.34-24.67,15.94-31,11.14C280.17,72.78,274.27,88.72,274.27,88.72Z"/><path class="cls-2" d="M219.24,168.1s-1.52-2.73,12.38-42.25c4.07,1.16,5.82-8.74,4.37-10.34a72.75,72.75,0,0,0-6-5.09"/><path d="M113.26,309.28a28.15,28.15,0,0,1,2.87-4.48,35.35,35.35,0,0,1,3.59-3.95,32.06,32.06,0,0,1,4.15-3.38,39,39,0,0,1,4.62-2.74h0a3.06,3.06,0,0,1,2.43,0,1.94,1.94,0,0,1,.88,1,3.2,3.2,0,0,1,.24,1.19A5.76,5.76,0,0,1,132,298a8.81,8.81,0,0,1-.21,1.07c-.16.7-.41,1.36-.62,2v0l0,0c-.34.66-.69,1.33-1.06,2s-.74,1.3-1,1.94a3.21,3.21,0,0,0-.22,2,15.32,15.32,0,0,0,.6,2.09l0,.12,0,.09c-.5,1.56-.75,3.22-1.37,4.8a16.64,16.64,0,0,1-2.59,4.28,18.62,18.62,0,0,0,2.2-4.42c.47-1.56.69-3.21,1.12-4.84v.2a14.94,14.94,0,0,1-.73-2.17,3.83,3.83,0,0,1,.19-2.43,21.55,21.55,0,0,1,1-2c.36-.66.69-1.31,1-2l0,.05c.19-.64.43-1.28.56-1.94a5.48,5.48,0,0,0,.17-1,4.41,4.41,0,0,0,.06-1,1.64,1.64,0,0,0-.61-1.37,2.18,2.18,0,0,0-1.61,0h0a38.56,38.56,0,0,0-4.54,2.6,41,41,0,0,0-4.17,3.18,38.31,38.31,0,0,0-3.72,3.71A32,32,0,0,0,113.26,309.28Z"/><path class="cls-2" d="M218.4,167.28c-2,16.39-6.43,16.07-11.82,20.58-2.18,12.38-14,25.48-14,25.48l-2.18-2c2-14-.44-16-2.62-15.87-2.18-.58-6.58,6-10.05,11.65-1.45-.58-.87-.58-6.11-1.75-4.22-16.45,7.28-30.13,7.28-30.13-2.62-30.57,12.66-49.64,12.66-49.64,3.82-5.12,5.83-5.83,3.79-8.16-8.3-6.84-18.63-24.6-19.51-27.8-2-.88-3.4,1.67-3.64,4.51-.14,6,12.38,21.4,14.89,24.9-11,17.46-15.76,33.62-14.6,53.86-10.19,15.43-8.73,25.48-8,31-7.86-.29-10.52.87-10.52.87s-2-6.11-7-4.8c-4.95,2.33-2,8.36-2,8.36a29.8,29.8,0,0,0-6.86,4.45c-2.11-3-4.08-6.26-8.23-3.28-3.71,3.28,1.22,8.52,1.22,8.52-3.77,3.39-5.29,6.36-7.11,11.57-5.26-1.83-17.69-8.73-20.53,0-1,6.77,2.33,7.24,13.32,12.89a27.27,27.27,0,0,0,3.06,16.81s-7.36,8.23-6.34,10.85,7.57,1.16,11.5.58c2.19,4.22,8,9.9,14.1,13.15-1.74,4.16-3.1,8.3-3.1,11.1,0,7.56,5.89,3.19,5.89,3.19a152.26,152.26,0,0,0,12-27.08c.57-6.31-5.71-4.71-7.4-2-1-.47-9.93-4.48-8.39-19.84-4.73-2-6-2.62-6-2.62s1.39-7.21,6-11.36a40.8,40.8,0,0,1,6.83,4.12c-.11-.63,6.33-12.83,24.47-12.42-1.75,5.46,5.24,11.79,11.35,5,1.43,2.05,7.86,7,6.3,19,3.31.66,5.49,1.31,5.49,1.31s-2.4,9.39-3.49,12.23a16,16,0,0,1-5.68-2s-1.05,7.12-10.54,12.55c-1.34-3.8-6.79-2.56-7.95,1.71,0,0-6.55,18.35-7.13,23-1.46,5.25,3.78,7.85,6.84,2.31a74.62,74.62,0,0,0,3.93-9.58c4.8-.25,16.17-3.12,18.39-5,1.35,1,7.38,5.68,9.42,4.08s.14-6.69-1.17-10.77a21.89,21.89,0,0,0,6.12-10.19c3.16,1.44,10.33,3.2,11.64-2,1-6-3.34-7.13-7.86-9.39a39.44,39.44,0,0,0,1.46-8.95s5.09.14,4.66-4.22-5.24-4.95-5.24-4.95a46.56,46.56,0,0,0-2.77-8.88c2.77-1.75,3.2-2.62,2.91-5.33-1-3.7-3.93-3.41-6.11-2.58a30.86,30.86,0,0,0-4.52-8.11c8.74-6.69,15.29-26.2,15.29-26.2,3.35-2.33,8.74-7.57,10.34-13.69S221.14,167.48,218.4,167.28Z"/><path class="cls-2" d="M181.1,118c-1-2.92-8.46-9.57-8.58-17.34-1.45-1.91-6.41-4.28-3,6.7,4.84,12.09,9.64,13.55,9.64,13.55A2,2,0,0,0,181.1,118Z"/><path class="cls-2" d="M165,114.94c-1.05-2.5-6.58-3.65-3.82,4.9,5.7,11.83,9.62,12.7,11.07,12.7s1.46-2.76,0-4.51S166,120.05,165,114.94Z"/><path class="cls-2" d="M159.22,122.83s-5.49-3.07-4.4,4.7,6.77,16.81,10.27,18,3.93-1.75,1.76-4.08C163.2,136.33,159.17,129.43,159.22,122.83Z"/><path class="cls-2" d="M152.47,130s-3.71-1.35-5.08,3.27,5.43,21.8,7.1,23.25c2,2.48,6.84,2.48,4.83-3.63C156,146.67,151.81,136.27,152.47,130Z"/><path d="M210.25,122.42a12.64,12.64,0,0,1-6.29-1.19,15.16,15.16,0,0,1-4.93-4l-7.6-9.88c-2.52-3.31-5-6.62-7.48-10-1.22-1.68-2.46-3.35-3.58-5.11a24.15,24.15,0,0,1-1.5-2.73,8.25,8.25,0,0,1-.87-3,8.14,8.14,0,0,0,.93,3,24,24,0,0,0,1.55,2.69c1.14,1.73,2.42,3.38,3.67,5,2.51,3.31,5.09,6.57,7.67,9.82l7.8,9.72a14.4,14.4,0,0,0,4.72,3.71,11.59,11.59,0,0,0,5.84,1Z"/><path d="M210.07,122c.75,4.7,1.32,9.44,2.22,14.08a12,12,0,0,0,.45,1.69,2.68,2.68,0,0,0,.81,1.32,2.57,2.57,0,0,0,1.52.27h.22l.13,0c.08,0,.19-.1.29-.15a3.62,3.62,0,0,0,.59-.54,19.07,19.07,0,0,0,2-2.86c.61-1,1.17-2,1.71-3.09a135.91,135.91,0,0,0,5.77-13c.87-2.2,1.69-4.43,2.44-6.67a35.61,35.61,0,0,0,1.67-6.81v0h0a10.69,10.69,0,0,0-.08-3.43,9.6,9.6,0,0,0-1.13-3.21,3.81,3.81,0,0,0-2.51-1.93,4.81,4.81,0,0,0-3.17.9,29.3,29.3,0,0,0-5.45,4.52,61.93,61.93,0,0,0-4.69,5.4,54.76,54.76,0,0,1,4.44-5.64,27.09,27.09,0,0,1,5.4-4.78,5.45,5.45,0,0,1,3.56-1.07,4.5,4.5,0,0,1,3.07,2.19,9.65,9.65,0,0,1,1.31,3.47,11.54,11.54,0,0,1,.12,3.71v0a34.9,34.9,0,0,1-1.66,7c-.73,2.28-1.54,4.53-2.4,6.76a136.23,136.23,0,0,1-5.92,13,30.29,30.29,0,0,1-3.92,6.08,4.26,4.26,0,0,1-.74.64,1.5,1.5,0,0,1-.51.23l-.31,0h-.22a3.18,3.18,0,0,1-1.91-.44,3.21,3.21,0,0,1-1-1.67,12.66,12.66,0,0,1-.43-1.77c-.44-2.36-.68-4.73-.93-7.1Z"/><path d="M150.4,232.76a65.26,65.26,0,0,1,5.28,6.42,30.78,30.78,0,0,1,2.2,3.57l.44,1c.11.34.26.68.35,1,.19.67.38,1.34.55,2,.67,2.69,1.21,5.42,2.08,8a6,6,0,0,0,.83,1.7,3.22,3.22,0,0,0,1.57.76,14.11,14.11,0,0,0,4,.23h0a10.55,10.55,0,0,0,2.64-1.25,20.51,20.51,0,0,0,2.43-1.82,34.7,34.7,0,0,0,4.25-4.4,23.06,23.06,0,0,1,4.33-4.5,13.09,13.09,0,0,1,2.69-1.6,6.42,6.42,0,0,1,3-.62,6.73,6.73,0,0,0-2.93.83,12.76,12.76,0,0,0-2.52,1.72,23.82,23.82,0,0,0-4.06,4.6,29.82,29.82,0,0,1-4.22,4.63,20.56,20.56,0,0,1-2.51,1.92,11.38,11.38,0,0,1-2.93,1.42h-.06a14.76,14.76,0,0,1-4.29-.2,4,4,0,0,1-2.07-1.1,6.9,6.9,0,0,1-1-2c-.88-2.7-1.37-5.42-2-8.1-.15-.68-.3-1.35-.47-2-.08-.34-.19-.64-.29-1l-.38-.93a29.46,29.46,0,0,0-2-3.57C153.75,237.16,152.1,234.94,150.4,232.76Z"/><path class="cls-2" d="M58.23,246.62s-.36,12-5.38,19c-1.17,2.62-.66,5,1.74,7.87a43.44,43.44,0,0,1,4.81,8.07s2.18,5,9.46,8.08,11,10.49,12.76,12.52,14,19.6,24.8,27.2a21.5,21.5,0,0,1,5.39,14.59,6.68,6.68,0,0,0,4.07,2.62c5.68,2.33,5.39,4.59,11.65,4.07a55.13,55.13,0,0,1,24.17,2.62c2.54,2.18,4.07-4.07,8.77-8.88,0,0,3-2.47-3.1-6.84"/><path class="cls-2" d="M157.52,327.18c-.44,4.52,4.07,4.81,1.45,8.88s-10.91,4.23-16.59,2.62-6.84,0-14.41-1-7.72-9-8.16-10.63-3.29-3.74-3.29-3.74"/><path class="cls-2" d="M58.56,246.59s8.41,2.42,10.16,3c-1.17,3.06-2,11.06,14.26,23.58l1.59-.44c1.67-.3,5.25-14.79,14.28-9.46,1.31,2.55.29,9.47-3.2,22.13,0,0,1.74,12.23,18,23.88-3.31,7.42-3.2,12.37-1.46,15.87,1.46.41,1.22.69,3.64,0,2.52-3.11.59-2.77,10.05-6.7,3.16,4.51,4.21,6.79,8.62,8.21s14.53,4.45,23.41.52c2.09-6.42,3.83-10.9,2.27-22.19"/><path d="M159.75,331.45a90.24,90.24,0,0,1,4.55-12.19A73.26,73.26,0,0,1,170.79,308c2.43-3.59,4.89-7.18,7.57-10.6a109.41,109.41,0,0,1,8.57-9.81l.08.07c-2.67,3.43-5.31,6.85-7.86,10.35s-5.19,6.92-7.7,10.45a71.58,71.58,0,0,0-6.7,11.06,89.47,89.47,0,0,0-4.9,12Z"/><path class="cls-4" d="M114.57,231.1l14.56,5.24c2.46,1,2.59,4.81-1.6,4.81-5.24-1-14.85-5-14.85-5C109.77,235.32,110.3,229.79,114.57,231.1Z"/><path class="cls-4" d="M179.36,227.61c-1,3.29-7,2.27-5.39-1.89l4.37-13.54c.63-3.64,7.28-2.61,5.53,1.6Z"/><path class="cls-4" d="M194.8,264.58l10.47,4.08c2.75,1.46,7.28-2.15,2.75-4.66l-11.26-4.39C194.64,258.38,190.86,262.11,194.8,264.58Z"/><path class="cls-2" d="M37.21,121.21A46.64,46.64,0,0,0,30.57,134a28.36,28.36,0,0,1-8.29,11.77,18.77,18.77,0,0,0-5,11.23,111,111,0,0,1,4.36,15.87C22.42,177,25.36,195,37.21,204.3"/><path class="cls-5" d="M72.17,263.35s-1.56,5.17-2.29,5.89-4.08.73-6.26.73-2.62-1.75-4.08-5.53c-1.89-1-1.6-3.79-1.6-3.79L63.33,248"/><path d="M123.4,350.16a44.07,44.07,0,0,1,.85,12.21,49.44,49.44,0,0,1-7.31,23,51.63,51.63,0,0,1-3.45,5,29,29,0,0,1-2,2.32l-2,2.27,2-2.31a27,27,0,0,0,1.91-2.36,48.46,48.46,0,0,0,3.34-5.05,49,49,0,0,0,6.77-22.93,43.22,43.22,0,0,0-1.07-11.92Z"/><path class="cls-2" d="M112.84,392.06a85.63,85.63,0,0,1-6.71,21.49s2,4.8-1.09,15.72,2.29,23.91,2.29,23.91-2.18,12.89-4.59,16.38c-3.69,3.53-9.17,7.32-13.21,7.53S75.88,475.24,73.37,476c-8.4.11-15.94-6.55-21.51-6.88,0,0,.66-15.72-13.53-24.23.65-6.66-3.94-13.63-9.39-21.19-3.72-4.69,1.85-4,1.85-4,3.93.22,8.88,2,12.45,2.84,2.73,0,3.38.22,4.8-.33s7.86-6,4.92-11.9-6.12-4.69-11-10.91C41.49,393,43,387.13,32,374.13c-2-2-.87-4.91,2.3-6.77"/><path d="M53.08,408.92a7.36,7.36,0,0,1,2.85,2,13.42,13.42,0,0,1,1.91,2.75c1.06,1.92,2,3.87,3.06,5.77a70.4,70.4,0,0,0,7.23,10.8,69.77,69.77,0,0,1-7.66-10.55c-1.13-1.87-2.17-3.79-3.27-5.64a13.22,13.22,0,0,0-1.9-2.52,6.69,6.69,0,0,0-2.47-1.66Z"/><path d="M16.22,341.79a52.52,52.52,0,0,1-.35,7.73,20.54,20.54,0,0,1-.83,3.82,8.08,8.08,0,0,1-.83,1.83l-.46.79c-.14.26-.23.56-.35.84a20.33,20.33,0,0,0-.76,7.43,27.55,27.55,0,0,0,1.48,7.4A17.58,17.58,0,0,0,15.78,375c.69,1.06,1.45,2.09,2.22,3.11q2.3,3,4.84,5.9a58.66,58.66,0,0,0,5.42,5.39,17.34,17.34,0,0,0,6.48,3.88h0a4.37,4.37,0,0,0,2.27-.34A3.28,3.28,0,0,0,38.21,391a13.36,13.36,0,0,1,.88-2.19,9.71,9.71,0,0,1,1.4-1.9,9.31,9.31,0,0,0-1.37,1.92,13.8,13.8,0,0,0-.85,2.19,3.29,3.29,0,0,1-1.22,2,4.66,4.66,0,0,1-2.33.39h0a17.74,17.74,0,0,1-6.61-3.84,59.1,59.1,0,0,1-5.52-5.33q-2.59-2.83-4.95-5.87c-.78-1-1.56-2-2.28-3.1a17.88,17.88,0,0,1-1.76-3.46A27.9,27.9,0,0,1,12,364.27a21.1,21.1,0,0,1,.69-7.73c.12-.31.22-.63.37-.93l.49-.88a7.2,7.2,0,0,0,.73-1.65,20.39,20.39,0,0,0,.73-3.67,50.37,50.37,0,0,0,.24-7.57Z"/><path d="M16.71,377.1c-1,.24-2.06.5-3.06.8l-.71.26a1.2,1.2,0,0,0-.3.14s-.07.06,0,0a.38.38,0,0,0,0-.38l0,.09c.26.58.41,1.05.59,1.57a45.2,45.2,0,0,1,1.55,6.27,39.43,39.43,0,0,1,.61,6.42c.08,2.15-.3,4.3-.22,6.38a23.29,23.29,0,0,0,4.15,11.83A24.45,24.45,0,0,0,28.7,419a24.65,24.65,0,0,1-9.55-8.35,23.81,23.81,0,0,1-4.44-11.94c-.12-2.19.22-4.29.1-6.4a40.54,40.54,0,0,0-.73-6.3,42.67,42.67,0,0,0-1.64-6.11c-.17-.48-.37-1-.56-1.42l0-.08a.56.56,0,0,1,0-.57,1.06,1.06,0,0,1,.29-.27,4.19,4.19,0,0,1,.43-.21,8.32,8.32,0,0,1,.78-.3c1-.34,2.07-.62,3.12-.88Z"/><path d="M17.22,407.14a3.37,3.37,0,0,0-1.56,1.73,6.17,6.17,0,0,0-.42,2.51,22.06,22.06,0,0,0,.35,2.69l.37,2.76c.46,3.65.89,7.35,2.32,10.7a9.11,9.11,0,0,0,3.29,4.17c1.57,1,3.12,2,4.61,3.09a33.88,33.88,0,0,1,4.23,3.61,11.65,11.65,0,0,1,3,4.65v0a9.64,9.64,0,0,0,2.42,1.51,3,3,0,0,0,1.39.25,1.49,1.49,0,0,0,1.14-.77,1.49,1.49,0,0,1-1.14.8,3.1,3.1,0,0,1-1.41-.22,10.06,10.06,0,0,1-2.48-1.48h0v0a11.43,11.43,0,0,0-3-4.52A33.09,33.09,0,0,0,26,435.07c-1.51-1.06-3.07-2-4.65-3a9.56,9.56,0,0,1-3.56-4.32c-1.55-3.44-2.05-7.18-2.6-10.83l-.41-2.73a21.47,21.47,0,0,1-.42-2.79,7.15,7.15,0,0,1,.44-2.91,4.23,4.23,0,0,1,2.07-2.29Z"/><path d="M19.88,431.21a17.33,17.33,0,0,0-2,.72,7.43,7.43,0,0,0-.85.44,1.88,1.88,0,0,0-.25.2c-.1.07.06,0,0-.27l-.11.61a3.9,3.9,0,0,0-.1,2.17c.13.9.33,1.84.43,2.85a8.32,8.32,0,0,1,0,1.58,5.22,5.22,0,0,1-.42,1.63,1.37,1.37,0,0,0-.08.88,4.1,4.1,0,0,0,.45,1.07c.87,1.5,2.32,3.11,2.61,5.3a11.57,11.57,0,0,1,.07,1.52c0,.48,0,1-.05,1.46a11.94,11.94,0,0,1-.51,3l-.86-.85a12.75,12.75,0,0,1,5.06-.67,10.25,10.25,0,0,1,4.83,1.59,12.11,12.11,0,0,1,3.51,3.62c.47.69.78,1.46,1.18,2.19l.86,2.33-.17-.23c2.53,1.63,5,3.32,7.44,5.1,1.21.89,2.41,1.81,3.56,2.78.57.49,1.14,1,1.67,1.53a7.35,7.35,0,0,1,1.45,1.8l0-.06A14.72,14.72,0,0,0,53.8,477a16.85,16.85,0,0,0,7.2.53,16.92,16.92,0,0,1-7.25-.35,15.05,15.05,0,0,1-6.42-3.45l0,0,0,0a7.27,7.27,0,0,0-1.4-1.66c-.54-.51-1.11-1-1.69-1.46-1.16-.93-2.37-1.81-3.6-2.67-2.45-1.71-5-3.32-7.53-4.88L33,463l-.06-.15L32,460.62c-.4-.68-.72-1.41-1.17-2a11.09,11.09,0,0,0-3.28-3.23A9.13,9.13,0,0,0,23.23,454a11.47,11.47,0,0,0-4.49.7l-1.22.45.36-1.3a16.06,16.06,0,0,0,.27-5.29c-.24-1.64-1.47-3-2.55-4.7a5.73,5.73,0,0,1-.67-1.52,3.11,3.11,0,0,1,.14-1.9,4.49,4.49,0,0,0,.22-2.36c-.11-.88-.32-1.78-.49-2.76a10.54,10.54,0,0,1-.16-1.56,3.92,3.92,0,0,1,.41-1.83l-.11.6a1.56,1.56,0,0,1,.44-1.26,3,3,0,0,1,.6-.52,8.41,8.41,0,0,1,1.11-.63,20.59,20.59,0,0,1,2.21-.86Z"/><path class="cls-2" d="M103.8,466.57c1.46.79,1.16,2.9-.58,4.59-8,8.45-7.86,13.1-7.86,16.16-3.79,2.77-8.59,10.48-12.09,20.09s-7.42,6.26-9.46,4.66c-.29-.87-1.75-1.46-7.13-5.09-3.35-4.81-1.17-6.85,0-14-1.9-19.36-13.11-18.49-13-19.95s2.22-3.14,2.22-3.14"/><path d="M47.85,542.23a66.58,66.58,0,0,1-4.68-10.06,45.38,45.38,0,0,1-2.65-10.77v-.11h.11a2.86,2.86,0,0,0,2-1.07,4.12,4.12,0,0,0,.92-2.15,6.13,6.13,0,0,0-1.33-4.45c-.93-1.3-2.25-2.3-3.31-3.54A22.93,22.93,0,0,1,36,506.17l-.06-.1L36,506a6.28,6.28,0,0,0,2.2-4.68,47.61,47.61,0,0,1,.5-5.44,16.71,16.71,0,0,1,1.64-5.22,6.74,6.74,0,0,1,4.15-3.51l0,0,0,0a29.24,29.24,0,0,1,7,2.82,32.08,32.08,0,0,1,6.2,4.33l.08.07v.1c0,3.21-.43,6.44.13,9.55a7.58,7.58,0,0,0,2,4.12,37.94,37.94,0,0,1,3.11,3.71,36.76,36.76,0,0,1,4.61,8.49,41.67,41.67,0,0,1,2.32,9.38,69.26,69.26,0,0,1,.42,9.65c0,3.21-.14,6.42-.25,9.62s-.24,6.41-.1,9.59a24.66,24.66,0,0,0,.58,4.7,9.69,9.69,0,0,0,1.91,4.18l.15.17-.09.2a7.75,7.75,0,0,1-2.12,2.61,9.07,9.07,0,0,1-2.89,1.62,14.82,14.82,0,0,1-6.5.63,26.71,26.71,0,0,1-3.22-.54c-1-.29-2.09-.55-3.12-.93a18,18,0,0,1-5.64-3.29,28.63,28.63,0,0,1-7.42-10.58,46,46,0,0,1-3.35-12.48c-1.12-8.49-2.27-17-4.9-25.1a33.81,33.81,0,0,0-5.72-11.21A13.47,13.47,0,0,0,23,504.76a11,11,0,0,0-6-.78l-.47.06-.09-.47c-1.21-6.43-2.51-12.85-3.85-19.26l-2-9.61c-.32-1.61-.63-3.23-.84-4.88a10.7,10.7,0,0,1-.08-2.54A2.82,2.82,0,0,1,10,466a2,2,0,0,1,1.21-.84l-.28.33c.14-1.15,0-2.37.16-3.63a6.89,6.89,0,0,1,1.3-3.56,10.54,10.54,0,0,1,2.72-2.57,25.42,25.42,0,0,1,3.19-1.85h0a13.74,13.74,0,0,1,6-.62A10,10,0,0,1,29.76,456,15.75,15.75,0,0,1,33,461.08a21,21,0,0,1,1.47,5.83A59,59,0,0,0,36,478.71a34.17,34.17,0,0,0,1.77,5.67,9.62,9.62,0,0,0,3.5,4.64l0,.09a9.64,9.64,0,0,1-3.63-4.66,34.26,34.26,0,0,1-1.88-5.67A58.49,58.49,0,0,1,34.05,467a20.71,20.71,0,0,0-1.49-5.68,14.85,14.85,0,0,0-3.2-4.85,9.37,9.37,0,0,0-5-2.62,13.27,13.27,0,0,0-5.72.63h0a23.2,23.2,0,0,0-3.09,1.82A10.1,10.1,0,0,0,13,458.67a6.13,6.13,0,0,0-1.13,3.21c-.11,1.16,0,2.39-.14,3.65l0,.27-.25.06c-.69.16-1,.73-1.06,1.51a10.38,10.38,0,0,0,.1,2.35c.22,1.6.54,3.2.87,4.8l2.1,9.6q2.12,9.6,3.91,19.27l-.56-.4a12,12,0,0,1,6.56.86,14.45,14.45,0,0,1,5.19,4.06,35,35,0,0,1,5.9,11.54c2.69,8.22,3.77,16.8,4.86,25.28A45.2,45.2,0,0,0,42.57,557a27.67,27.67,0,0,0,7.16,10.31c3.15,2.79,7.36,4.12,11.52,4.61a14,14,0,0,0,6.18-.56,8.81,8.81,0,0,0,2.68-1.49A7.05,7.05,0,0,0,72,567.55l.06.37a10.42,10.42,0,0,1-2-4.49,25.61,25.61,0,0,1-.59-4.83c-.13-3.23,0-6.44.13-9.64s.26-6.41.29-9.61a69.23,69.23,0,0,0-.38-9.56,41,41,0,0,0-2.27-9.26,35.81,35.81,0,0,0-4.5-8.38,37,37,0,0,0-3.06-3.67,8.11,8.11,0,0,1-2.13-4.38c-.56-3.24-.1-6.46-.1-9.64l.07.16a31.63,31.63,0,0,0-6.1-4.29,29,29,0,0,0-6.9-2.82h.1a6.36,6.36,0,0,0-3.93,3.31A16.17,16.17,0,0,0,39,495.93a48.61,48.61,0,0,0-.52,5.4,11,11,0,0,1-.15,1.38,6.25,6.25,0,0,1-.48,1.31,7.84,7.84,0,0,1-1.69,2.19l0-.17a23.78,23.78,0,0,0,2.87,3.87c1,1.23,2.35,2.22,3.32,3.56a6.42,6.42,0,0,1,1.35,4.64,4.43,4.43,0,0,1-1,2.25,3.1,3.1,0,0,1-2.17,1.13l.1-.11a45.26,45.26,0,0,0,2.59,10.74,66.33,66.33,0,0,0,4.63,10.06Z"/><path class="cls-2" d="M16.89,503.48s-3.35,1-.87,4.66c-2.33,2.47-4.23,4.28-7.72,4.76-.73,1.79,0,2.66,0,2.66s22.45,54.88,35.61,45.13"/><path d="M16,507.64l2.62,0h.06a2.29,2.29,0,0,1,1.33.92,5.91,5.91,0,0,1,.71,1.2,18.37,18.37,0,0,1,.92,2.5c.5,1.68.88,3.38,1.24,5.08.71,3.41,1.29,6.83,1.9,10.24s1.24,6.83,2,10.21a51.29,51.29,0,0,0,3.06,9.92,50.37,50.37,0,0,1-3.28-9.87c-.84-3.37-1.54-6.77-2.23-10.17s-1.35-6.8-2.13-10.17c-.39-1.69-.81-3.36-1.34-5a16.31,16.31,0,0,0-.93-2.36c-.34-.73-.88-1.48-1.37-1.57h.07l-2.62,0Z"/><path class="cls-2" d="M27.76,551.92s-1.41,5.13,2.09,9.07S37,573.65,37,573.65s1-1.46,1.75-.58,14.55,22.85,31,19.51c1.31.34,5.68,4.8.73,9.46-5.38,2.76-6.55,3.06-5.82,8.3s-2.62,8.15-5.39,7.13"/><path class="cls-2" d="M71,569.62S81.38,603.06,85,606.11c3.2.59,5,1.31,6,3.5s1,10.92-8,15-21.25-3.2-26.64-10-23.58-35.81-19.65-40.33"/><path d="M85,606.61a20.75,20.75,0,0,0-3.49.35,18,18,0,0,0-3.4.95,13.39,13.39,0,0,0-3.08,1.75,10,10,0,0,0-2.29,2.71,10.07,10.07,0,0,1,2.13-2.9,13.68,13.68,0,0,1,3-2,20,20,0,0,1,3.45-1.23,20.69,20.69,0,0,1,3.63-.61Z"/><path class="cls-2" d="M65.82,516.68s-.09-5.34,1.66-8.54"/><path class="cls-2" d="M80.14,512.9s7.43,6.89,8.08,10.16c-1.74,1.68-1.74,1.68,1.17,4.88s15,16,18.78,17.9c.87,1.9,10.92,13.4,14.41,16.75-.87,1-.73.87,1.31,1.89,5.39,3.35,18.2,17.63,24.17,20.32l1.45-.23s15.87,7,22.28.23,11.5-12.61,2-15.81-24-19.36-24-19.36,1.17-.44-.14-2.33c-.58-3.2-18.49-29.26-25.77-37.7s-8.3-25.63-8.3-25.63l-3.35-1.74s4.81-6.85,4.08-12.09-8.86-7.13-11.86-5.45"/><path class="cls-2" d="M108.17,545.84s18.19,7.57,23.58,8.3,14.7-.43,18.05-4.51"/><path class="cls-2" d="M122.58,562.59s2.62-2.33,4.08-1.6,15.43,8,24.45,5.09c2.19-.15,7.14,3.35,3.79,8.88-2.45,4.38-3.79,7.72-5.39,9.61"/><path d="M173.74,569.48a12.09,12.09,0,0,0-3.13-.1,10.9,10.9,0,0,0-3.08.78,8.94,8.94,0,0,0-2.71,1.71,11.13,11.13,0,0,0-2.06,2.51,11.17,11.17,0,0,1,1.89-2.69,9.33,9.33,0,0,1,2.67-2,11.36,11.36,0,0,1,3.18-1.07,12.49,12.49,0,0,1,3.41-.14Z"/><path class="cls-2" d="M104.67,468.74s5.83,9.34,7.57,13.49c0,0-4.83-2-7.51-1.17a6.24,6.24,0,0,0-3.55,2.48s1.89,12.66,1,14.12a2.08,2.08,0,0,0-1.6.87s-1.75,6.7-2.48,8.3c-1.89,1.31-3.06.87-3.64,2.33s-3.35,11.79-6.26,13.9"/><path class="cls-4" d="M130.86,265.82a2.76,2.76,0,0,1-2.24-3.05c.22-2.63,5-3.79,5-3.79s4.15.44,2.62,3.42S130.86,265.82,130.86,265.82Z"/><path class="cls-4" d="M145.6,229.53l-2.57-2.9s-.93-4,3.14-3l3,3.21S150,231.48,145.6,229.53Z"/><path class="cls-4" d="M155.45,224.44,153.78,221s.55-3.68,3.74-2.52c2.29,3.21,2.19,4.36,2.19,4.36S159,226.73,155.45,224.44Z"/><path class="cls-4" d="M187.58,277.47a2.78,2.78,0,0,1-3.06,2.24c-2.62-.22-3.78-5-3.78-5s.44-4.15,3.42-2.62S187.58,277.47,187.58,277.47Z"/><path class="cls-4" d="M189.47,232.77l3.56-1.36s3.62.86,2.19,3.93c-3.39,2-4.53,1.81-4.53,1.81S186.89,236.09,189.47,232.77Z"/><path class="cls-4" d="M191.86,242.68l3.49,0s2.78,1.94.53,4.07c-3.55.57-4.45,0-4.45,0S188.56,244.62,191.86,242.68Z"/><path class="cls-5" d="M45,306.7c6.11-3.89,14-1.47,14-1.47a6.39,6.39,0,0,0,6.09-5.07c1.06-7.38,3.81-10.54,3.81-10.54"/><path d="M59,305.18a10.38,10.38,0,0,1,3.47,1.92,23.36,23.36,0,0,1,2.92,2.7,27,27,0,0,1,4.43,6.56,51.6,51.6,0,0,1,3,7.28,24.46,24.46,0,0,1,1.23,7.85v.11l-.06.1a15.88,15.88,0,0,1-2.55,3.53A13.47,13.47,0,0,1,68,337.86a14.92,14.92,0,0,1-4,1.52,14.3,14.3,0,0,1-4.27.3v-.1a18.47,18.47,0,0,0,4.11-.81,17,17,0,0,0,3.75-1.71,15.13,15.13,0,0,0,3.17-2.57,17.88,17.88,0,0,0,2.46-3.26l-.06.22a30.23,30.23,0,0,0-.73-7.68,22.62,22.62,0,0,0-3-7.17,60.66,60.66,0,0,0-4.64-6.23A21.45,21.45,0,0,0,59,305.28Z"/><path d="M72.88,332.7a12.7,12.7,0,0,0,2.34,2.51,4.76,4.76,0,0,0,3,1.18h0l0,0a4.18,4.18,0,0,0,1.43.09.65.65,0,0,0,.62-.7,5.54,5.54,0,0,0-.16-1.45c-.06-.26-.11-.53-.15-.82a3.88,3.88,0,0,1,0-.49.81.81,0,0,1,.37-.67l-.16.17a3.43,3.43,0,0,1,1.59-1.47,5.48,5.48,0,0,1,2-.41,14.24,14.24,0,0,1,3.91.66,34,34,0,0,1,3.69,1.38c1.21.53,2.39,1.1,3.55,1.73h0l0,0a8.24,8.24,0,0,1,1.55,1.41,3.64,3.64,0,0,1,.88,2,9.41,9.41,0,0,1-.16,2.07,2.11,2.11,0,0,0,.34,1.54l-.24-.19a7.53,7.53,0,0,0,3.54.24,6.63,6.63,0,0,0,.88-.21l.34-.15c.11-.06.2-.15.31-.22a5.68,5.68,0,0,0,1-1.47,6.43,6.43,0,0,1,2.59-3.05,6.06,6.06,0,0,1,3.92-.4v.1a6.34,6.34,0,0,0-3.63.78,6.43,6.43,0,0,0-2.12,3,6.29,6.29,0,0,1-1.1,1.77,5.72,5.72,0,0,1-.46.37,5.36,5.36,0,0,1-.54.26,8.17,8.17,0,0,1-1,.27,7.74,7.74,0,0,1-4.12-.26l-.13-.05-.11-.14a3.07,3.07,0,0,1-.47-2.26,9.8,9.8,0,0,0,.22-1.88,2.83,2.83,0,0,0-.63-1.58,7.26,7.26,0,0,0-1.32-1.34l0,0-1.66-1c-.56-.31-1.12-.64-1.7-.94a23,23,0,0,0-3.58-1.51,10,10,0,0,0-3.79-.47,5.13,5.13,0,0,0-1.76.51A2.65,2.65,0,0,0,81,332.9l-.16.17c.08-.05,0-.07,0,0a2,2,0,0,0,0,.31c0,.24.11.49.16.76a5.54,5.54,0,0,1,.19,1.72,1.62,1.62,0,0,1-.41,1,1.65,1.65,0,0,1-1,.47,4.52,4.52,0,0,1-1.75-.17h.09a4.57,4.57,0,0,1-1.84-.49,7.21,7.21,0,0,1-1.48-1.08,8.34,8.34,0,0,1-1.16-1.36,9,9,0,0,1-.91-1.52Z"/><path d="M65.05,310.07a10.58,10.58,0,0,0,3-3.77,22.67,22.67,0,0,0,1.72-4.55c.45-1.6.9-3.2,1.43-4.78a17.39,17.39,0,0,1,.93-2.35,10,10,0,0,1,1.43-2.09A16.89,16.89,0,0,0,72,297.18c-.38,1.62-.78,3.23-1.22,4.84a16.5,16.5,0,0,1-2,4.67A8.38,8.38,0,0,1,65.05,310.07Z"/><path d="M68.13,314.08a9.75,9.75,0,0,0,3.63-3.28,10.1,10.1,0,0,0,1.07-2.16c.25-.75.44-1.57.68-2.4A27.85,27.85,0,0,1,78,297.1a69.82,69.82,0,0,0-3.49,9.42c-.25.78-.43,1.61-.76,2.45a9.1,9.1,0,0,1-1.32,2.28A7.92,7.92,0,0,1,68.13,314.08Z"/><path class="cls-2" d="M45.86,367.59l-3.49-5.47s-3.5-4.36-7.21-1.53,0,7.54,0,7.54l3.17,4.51Z"/><path class="cls-2" d="M61,390.51l4-7.86,5.2,2.4s4.8,2.62,2.1,6.55-7.3.89-7.3.89Z"/><path d="M39.68,371.73c.65,1,1.32,2,2.06,2.95s1.48,1.88,2.28,2.76a43.52,43.52,0,0,0,5.18,4.89,40.59,40.59,0,0,0,5.9,4,51.37,51.37,0,0,0,6.51,3c-.58-.13-1.17-.28-1.75-.44a15.23,15.23,0,0,1-1.75-.51A31.61,31.61,0,0,1,54.75,387a29.57,29.57,0,0,1-6.17-3.89,30.66,30.66,0,0,1-5.14-5.17A26.4,26.4,0,0,1,39.68,371.73Z"/><path d="M45.18,368.63c1.47,1.5,2.88,3,4.39,4.46s3,2.83,4.66,4.1a52.37,52.37,0,0,0,5.05,3.58A29.94,29.94,0,0,0,62,382.28a20.24,20.24,0,0,0,2.86,1.24,19.52,19.52,0,0,1-6-2.08,32.67,32.67,0,0,1-5.3-3.47A38.53,38.53,0,0,1,49,373.62c-.71-.78-1.36-1.61-2-2.41S45.75,369.51,45.18,368.63Z"/><path class="cls-2" d="M35.16,360.59s1.09-4.66-5.46-10.3"/><path d="M17.08,334.42a12.8,12.8,0,0,0-1.27,4.28,6.74,6.74,0,0,0,.75,4.21,8.2,8.2,0,0,0,3.17,2.89,30.56,30.56,0,0,0,4.06,1.88c1.39.56,2.82,1.05,4.25,1.54l4.29,1.49c.72.25,1.44.52,2.14.8s1.39.65,2.08,1a43.34,43.34,0,0,0,4.16,1.78,20.19,20.19,0,0,0,4.38,1,11,11,0,0,0,4.39-.42c2.86-.85,4.74-3.39,6.09-6a29.66,29.66,0,0,0,2.79-8.45,23.91,23.91,0,0,0,.13-8.84v0a15.62,15.62,0,0,1-.32-7.5l.09.3A11.3,11.3,0,0,0,55,321.48a6.1,6.1,0,0,0-4.32-.36l0-.1a8.24,8.24,0,0,1,2.26-.39,5.79,5.79,0,0,1,2.28.44,11.94,11.94,0,0,1,3.61,2.87l.11.12,0,.18a15.21,15.21,0,0,0,.56,7.09h0v0a23.89,23.89,0,0,1,0,9.23,29.24,29.24,0,0,1-3,8.69,16.22,16.22,0,0,1-2.72,3.77,8.48,8.48,0,0,1-4,2.37,11.72,11.72,0,0,1-4.6.24,20.94,20.94,0,0,1-4.44-1.12c-2.9-1-5.52-2.55-8.46-3.28L27.79,350c-1.45-.46-2.9-.94-4.33-1.49a28.83,28.83,0,0,1-4.15-2A8.46,8.46,0,0,1,16,343.25a7.37,7.37,0,0,1-.61-4.61A12.46,12.46,0,0,1,17,334.36Z"/><path d="M45.21,308.15a13,13,0,0,1,3.17,3.14,16.51,16.51,0,0,1,2.11,4,11.91,11.91,0,0,1,.69,4.53A9.58,9.58,0,0,1,51,321a4.06,4.06,0,0,1-.48,1.11,3.87,3.87,0,0,1-1.85,1.61h-.07a5.29,5.29,0,0,0-3.44,2.79A13.38,13.38,0,0,0,43.61,331a8.9,8.9,0,0,1-1.82,4.57,6.91,6.91,0,0,1-4.35,2.4h0l-.07,0A16.41,16.41,0,0,0,33,337c-1.48-.1-3,0-4.53,0a28.93,28.93,0,0,1-4.59-.55L21.62,336l-1.13-.22c-.38-.08-.76-.21-1.14-.33a12.25,12.25,0,0,1-4.17-2.18,13.48,13.48,0,0,1-3-3.62,17.56,17.56,0,0,1-2-8.92h.1a19,19,0,0,0,2.55,8.53,12.78,12.78,0,0,0,2.91,3.26,12.09,12.09,0,0,0,3.89,1.92c.35.09.69.21,1.05.3l1.11.21,2.23.44a26.12,26.12,0,0,0,4.43.63c1.49.06,3,0,4.58.18a15.3,15.3,0,0,1,4.47,1.23l-.12,0a6.19,6.19,0,0,0,4.11-2.06A7.64,7.64,0,0,0,43.26,331a16,16,0,0,1,1.35-4.77,7.33,7.33,0,0,1,1.48-2.08,4.66,4.66,0,0,1,2.3-1.26l-.07,0a3.71,3.71,0,0,0,2-3.19,10.87,10.87,0,0,0-.55-4.21,16.23,16.23,0,0,0-4.62-7.28Z"/><path d="M4,297.12l-1.07,2V299a33.43,33.43,0,0,1,2,5.22,25.67,25.67,0,0,1,1,5.52c.07.93.09,1.86.12,2.78a24,24,0,0,0,.13,2.71,4.14,4.14,0,0,0,1,2.29,10,10,0,0,0,2,1.71c.77.53,1.51,1.09,2.26,1.63a11.09,11.09,0,0,0,2.33,1.4A18.89,18.89,0,0,0,19,323.33a39.05,39.05,0,0,0,5.5.34,13.93,13.93,0,0,0,2.68-.31,4,4,0,0,0,2.17-1.17l-.07.37a7.43,7.43,0,0,1-.14-4.71,5.75,5.75,0,0,1,3.29-3.45c2.83-1.2,5.74-1.9,8.39-3.22,1.27-.65,2.65-1.4,3.18-2.56s-.58-2.39-1.44-3.56a31.88,31.88,0,0,1-2.51-3.79,28.3,28.3,0,0,1-1.81-4.16l.09,0a29.61,29.61,0,0,0,4.8,7.52,16.47,16.47,0,0,1,1.4,1.84,5.77,5.77,0,0,1,.29.55,3.58,3.58,0,0,1,.18.64,2.48,2.48,0,0,1-.17,1.33,4.69,4.69,0,0,1-1.56,1.91,12.59,12.59,0,0,1-2,1.22c-2.76,1.36-5.71,2.19-8.44,3.25a4.76,4.76,0,0,0-2.81,2.81,6.8,6.8,0,0,0,0,4.16l.06.22-.13.15A4.45,4.45,0,0,1,27.36,324a14.12,14.12,0,0,1-2.82.18c-1.87-.05-3.71-.3-5.54-.53a23.9,23.9,0,0,1-5.45-1.12,38.43,38.43,0,0,1-4.79-2.83A11,11,0,0,1,6.48,318a4.75,4.75,0,0,1-1.24-2.69c-.25-1.91-.12-3.74-.22-5.57a36.86,36.86,0,0,0-2.39-10.65l0-.09,0-.06,1.26-1.86Z"/><path d="M4.2,270a43.69,43.69,0,0,0-2.48,12.6,28.16,28.16,0,0,0,.4,6.36c.1.52.18,1.05.29,1.57l.44,1.53.21.76c.09.25.2.49.3.74L4,295c.46.95,1,1.86,1.54,2.78s1.27,1.71,2,2.5a40.89,40.89,0,0,0,4.63,4.49,24.24,24.24,0,0,0,5.38,3.5,13.28,13.28,0,0,0,3,1,6.44,6.44,0,0,0,3.06,0l-.16.17a24.3,24.3,0,0,1,2.89-5.79,11.6,11.6,0,0,1,4.9-4.34c2-.84,4.23-1.14,5.54-2.58s1.58-3.58,1.54-5.62c0-4.19-1.3-8.28-2-12.52a84.07,84.07,0,0,1-1.16-12.76h.1a111.48,111.48,0,0,0,1.82,12.62c.41,2.08.92,4.13,1.41,6.22.24,1,.4,2.12.58,3.18a29.07,29.07,0,0,1,.25,3.24,11.39,11.39,0,0,1,0,1.65,8.56,8.56,0,0,1-.25,1.65l-.2.83-.34.79-.18.4-.26.36a3.56,3.56,0,0,1-.55.68,6.92,6.92,0,0,1-2.92,1.73c-1,.37-2.07.62-3,1A11.17,11.17,0,0,0,27,304.1a26.06,26.06,0,0,0-3,5.51l0,.15-.11,0c-2.33.57-4.47-.29-6.44-1.17a30.23,30.23,0,0,1-5.45-3.56l-1.26-1-1.2-1.1c-.83-.7-1.56-1.5-2.35-2.25S5.68,299,5,298.18c-.32-.44-.59-.92-.89-1.38a15.74,15.74,0,0,1-.84-1.43A25.32,25.32,0,0,1,1,282.55,37.38,37.38,0,0,1,4.1,270Z"/><path d="M22.53,284.85l-5.2.12h-.06a21.9,21.9,0,0,1-9.14-6.53,16,16,0,0,1-3.56-10.67c.11-.95.12-1.91.31-2.85s.42-1.86.65-2.78q.83-2.7,1.85-5.33c1.37-3.5,2.86-7,4.5-10.33,3.26-6.76,6.9-13.33,10.8-19.73,2-3.17,4-6.35,6.26-9.34a49.6,49.6,0,0,1,3.6-4.34,12.32,12.32,0,0,1,4.59-3.38l0,0h.06a17.61,17.61,0,0,1,4.24,1,16.47,16.47,0,0,1,3.83,2.12,15.43,15.43,0,0,1,3.15,3.05A7.06,7.06,0,0,1,50.23,220a151.74,151.74,0,0,1-1.59,17.17,87.78,87.78,0,0,1-4,16.77,31,31,0,0,1-4,7.72,14,14,0,0,1-3.16,3.08,8.9,8.9,0,0,1-4.2,1.46l.08,0a16,16,0,0,0-5.13,2.68,13.08,13.08,0,0,0-3.67,4.48,18.69,18.69,0,0,0-1.79,5.58A23.08,23.08,0,0,0,22.53,284.85Zm-.07-.06a21.38,21.38,0,0,1-.07-5.93,18,18,0,0,1,1.66-5.76,13.85,13.85,0,0,1,3.73-4.73,16.91,16.91,0,0,1,5.3-2.9h.09A8,8,0,0,0,37,264.05a12.85,12.85,0,0,0,2.9-2.94,32.59,32.59,0,0,0,3.78-7.53,90.19,90.19,0,0,0,4-16.58,152.37,152.37,0,0,0,1.73-17,6.42,6.42,0,0,0-1.52-3.63,15,15,0,0,0-3-3,15.75,15.75,0,0,0-7.69-3.15h.11a12,12,0,0,0-4.42,3.15,44.68,44.68,0,0,0-3.64,4.24A104.29,104.29,0,0,0,23,226.91a193.38,193.38,0,0,0-10.38,19.88c-1.53,3.41-3,6.83-4.36,10.32s-2.7,7-2.83,10.68A15.7,15.7,0,0,0,8.62,278a22.71,22.71,0,0,0,8.76,6.64h-.05Z"/><path d="M37,279.72q5.64-8.6,11.12-17.29c3.61-5.82,7.2-11.65,10.5-17.64,1.65-3,3.2-6,4.53-9.15.3-.79.68-1.57.91-2.36s.52-1.59.65-2.42.29-1.67.36-2.51.15-1.68.18-2.53a40,40,0,0,0-.94-10.1,32.67,32.67,0,0,0-1.4-4.87c-.15-.4-.32-.78-.49-1.16s-.34-.69-.63-.82a3.42,3.42,0,0,0-2.26.23l.18-.25c-.27,2.76-.59,5.5-1,8.24-.2,1.36-.41,2.73-.66,4.09a16.18,16.18,0,0,1-1.1,4,17.23,17.23,0,0,0,.91-4c.21-1.37.36-2.74.51-4.11q.42-4.11.73-8.24l0-.17.16-.07a5.52,5.52,0,0,1,1.3-.38,2.65,2.65,0,0,1,1.44.1,1.4,1.4,0,0,1,.62.5,3.59,3.59,0,0,1,.36.61,12.93,12.93,0,0,1,.54,1.2,33.39,33.39,0,0,1,1.55,4.95,37.2,37.2,0,0,1,.85,5.12c.12.86.13,1.73.2,2.59s.06,1.73,0,2.6a25.21,25.21,0,0,1-.17,2.6c-.06.86-.22,1.72-.35,2.58a25.63,25.63,0,0,1-.66,2.54c-.24.85-.61,1.63-.92,2.44a90.47,90.47,0,0,1-4.62,9.24c-3.36,6-7,11.82-10.75,17.55S41,274.18,37,279.72Z"/><path class="cls-2" d="M49.79,197.76s-5,1.9-5.24,4.3-4.28,8.77-4.28,8.77"/><path d="M60.41,208.46a15.92,15.92,0,0,0-.4-3.37,5.4,5.4,0,0,0-1.45-2.86,1.91,1.91,0,0,0-1.38-.44,5.89,5.89,0,0,0-1.63.32,3.76,3.76,0,0,0-1.4.81,2,2,0,0,0-.64,1.36v0h0c-.27,2-.6,4-1,6-.2,1-.42,2-.68,2.94A11.22,11.22,0,0,1,50.78,216a10.92,10.92,0,0,0,.95-2.84c.22-1,.4-2,.56-2.95.31-2,.56-4,.76-6v0a2.46,2.46,0,0,1,.73-1.77,4.17,4.17,0,0,1,1.57-1,6.62,6.62,0,0,1,1.78-.43,2.65,2.65,0,0,1,1.89.54,6.15,6.15,0,0,1,1.83,3.21,17.14,17.14,0,0,1,.56,3.57Z"/><path d="M55.35,201.72a5.52,5.52,0,0,0-.47-1.93,3.52,3.52,0,0,0-1.22-1.5,3.63,3.63,0,0,0-1.87-.59,8.94,8.94,0,0,0-1,0l-1,.19.18-.14a11.65,11.65,0,0,0-1,3l-.73,3.16a19.6,19.6,0,0,1-2.34,6,19,19,0,0,0,2-6.1l.59-3.19a11.75,11.75,0,0,1,.9-3.2l0-.1.13,0,1.1-.25a8.77,8.77,0,0,1,1.15-.08,4.48,4.48,0,0,1,2.27.62,4.36,4.36,0,0,1,1.6,1.78,6.53,6.53,0,0,1,.66,2.28Z"/><path d="M66.65,474.82a16.49,16.49,0,0,1-.6-4.74,14.75,14.75,0,0,1,1-4.69h0l3.52-13.2c1-4.45,2-8.89,2.93-13.35l1.23-6.72.61-3.36.47-3.38.93-6.76c.27-2.26.44-4.53.66-6.8a179.67,179.67,0,0,0,.43-27.25c-.2-2.27-.38-4.53-.62-6.79l-.46-3.38-.24-1.68-.3-1.68a69.13,69.13,0,0,0-3.42-13.1l-.1-.24.13-.2c1.62-2.43,3.26-4.84,5-7.22.43-.59.86-1.18,1.31-1.77l.69-.87.43-.45a2.49,2.49,0,0,1,.59-.38,1.47,1.47,0,0,1,1.5.2,2.92,2.92,0,0,1,.82,1,8.65,8.65,0,0,1,.82,2.17l0,.23-.15.19-5.7,7,.09-.41a116.26,116.26,0,0,1,1.94,13.71c.43,4.59.63,9.19.74,13.79a267.37,267.37,0,0,1-1,27.59l-.68,6.87c-.2,2.29-.58,4.56-.85,6.84s-.55,4.57-1,6.84l-1.14,6.8c-.35,2.28-.82,4.53-1.28,6.78l-1.39,6.76c-1,4.48-2.16,8.94-3.24,13.41v0a17.77,17.77,0,0,0,0,4.94A10.87,10.87,0,0,0,71,473.9a5.15,5.15,0,0,0,1.34,2l.08.07h-.1a11.07,11.07,0,0,1-3,.1A3.66,3.66,0,0,1,66.65,474.82Zm0,0a3.62,3.62,0,0,0,2.67,1.25,11,11,0,0,0,3-.13l0,.08a5.32,5.32,0,0,1-1.4-2.07,11.16,11.16,0,0,1-.69-2.4,18.21,18.21,0,0,1-.11-5h0c1-4.48,2.08-9,3-13.44l1.31-6.77c.45-2.25.91-4.5,1.25-6.77l1.1-6.8c.4-2.26.61-4.55.93-6.82s.63-4.55.82-6.84l.64-6.86a268.65,268.65,0,0,0,.83-27.51c-.13-4.58-.35-9.17-.81-13.73a116.1,116.1,0,0,0-2-13.57l0-.23.14-.18L83,350l-.1.42a8.22,8.22,0,0,0-.7-1.91,2.18,2.18,0,0,0-.54-.69.48.48,0,0,0-.54-.09c-.43.18-.88.84-1.32,1.39s-.88,1.16-1.3,1.74c-1.71,2.35-3.35,4.76-5,7.17l0-.44A68.52,68.52,0,0,1,77,370.9l.3,1.69.23,1.7.44,3.4c.23,2.27.41,4.55.6,6.83A179.81,179.81,0,0,1,78,411.88c-.23,2.27-.42,4.55-.69,6.81l-1,6.78-.49,3.38-.63,3.37L74,438.94c-.94,4.47-2.07,8.89-3.1,13.33l-3.72,13.16h0a14.53,14.53,0,0,0-1,4.64A16.47,16.47,0,0,0,66.65,474.82Z"/><path d="M106.68,362.35l-5.27-6.68,0,0v0a5.5,5.5,0,0,1,0-1.57,3.35,3.35,0,0,1,.51-1.52,2.26,2.26,0,0,1,1.31-1,4.19,4.19,0,0,1,1.61-.13h.1l.08.1,6.27,8.9.1.14-.06.17c-3,8.68-5.54,17.55-7.87,26.44q-1.78,6.68-3.34,13.39C99,405,98,409.52,97.1,414a208.06,208.06,0,0,0-3.75,27.33,111.31,111.31,0,0,0,0,13.79,55.1,55.1,0,0,0,2.38,13.5l0,.08,0,.08a17.79,17.79,0,0,0-.29,3.14,8.16,8.16,0,0,1-.7,3.25,5,5,0,0,1-1,1.39,3,3,0,0,1-1.58.83,4.47,4.47,0,0,1-3.3-1l-.27-.2.2-.31a11.38,11.38,0,0,0,.85-1.67,12.85,12.85,0,0,0,.6-1.78,12.07,12.07,0,0,0,.4-3.73v0a138.55,138.55,0,0,1-.15-27.09c.73-9,2-17.95,3.47-26.84s3.44-17.71,5.57-26.47c.5-2.2,1.08-4.38,1.64-6.56s1.12-4.37,1.73-6.54C104.08,370.94,105.38,366.69,106.68,362.35Zm.1,0c-1.17,4.33-2.38,8.73-3.45,13.09-.58,2.17-1.12,4.36-1.64,6.55s-1.07,4.37-1.55,6.57q-3,13.17-5.2,26.5c-1.49,8.87-2.68,17.8-3.41,26.76a139.65,139.65,0,0,0,0,26.89v0h0a13,13,0,0,1-.48,4,13.24,13.24,0,0,1-.66,1.89,12.76,12.76,0,0,1-1,1.78l-.07-.51a3.69,3.69,0,0,0,2.68.85,3.15,3.15,0,0,0,2.1-1.82,7.56,7.56,0,0,0,.67-3,19.21,19.21,0,0,1,.35-3.24v.16a56.07,56.07,0,0,1-2.27-13.66A112,112,0,0,1,93,441.34a250.6,250.6,0,0,1,3.49-27.42c.82-4.54,1.71-9.06,2.71-13.56s2.12-9,3.28-13.44,2.45-8.89,3.78-13.3,2.7-8.81,4.33-13.14l0,.31-6.13-9,.18.11a3.54,3.54,0,0,0-1.42.09,1.89,1.89,0,0,0-1.11.76,4.14,4.14,0,0,0-.47,2.8l0-.07Z"/><path d="M72.3,503.48c-.14-2.45-.3-4.91-.49-7.36-.09-1.22-.18-2.45-.3-3.66a20.11,20.11,0,0,0-.58-3.58,66.83,66.83,0,0,0-2.57-6.81,18.46,18.46,0,0,1-1.26-3.53,5.53,5.53,0,0,1,.33-3.72l.09.05a6,6,0,0,0,.17,3.52,23.52,23.52,0,0,0,1.51,3.29,29.51,29.51,0,0,1,2.54,7,21.34,21.34,0,0,1,.44,3.71c.07,1.24.11,2.47.14,3.7.06,2.46.08,4.92.08,7.38Z"/><path d="M71.82,475.81a22.28,22.28,0,0,1,3,6.49,7.4,7.4,0,0,1,.23,1.83l0,1.76L75,489.41l-.25,14.07-.25-14.07-.07-3.53,0-1.75a7.27,7.27,0,0,0-.26-1.65A21.75,21.75,0,0,0,71,476.39Z"/><path d="M86.32,477.15a12.56,12.56,0,0,0,0,1.73c0,.58.12,1.17.22,1.75a20.15,20.15,0,0,0,.91,3.43l0,.13,0,.12c-1.15,3.07-2.55,6-3.82,9s-2.52,6-3.52,9.05c.88-3.12,2-6.17,3.18-9.19s2.46-6,3.47-9.05v.24a20.57,20.57,0,0,1-1.08-3.53,18.37,18.37,0,0,1-.3-1.83,14.44,14.44,0,0,1-.09-1.88Z"/><path d="M90,476.89c.47,1.09.89,2.18,1.26,3.31.18.57.35,1.14.48,1.74a5.54,5.54,0,0,1,.1.95,1.38,1.38,0,0,1-.08.52,3,3,0,0,1-.17.46c-1,2.18-2.18,4.16-3.32,6.21l-3.47,6.08c-1.15,2-2.31,4.06-3.34,6.16,1-2.14,2-4.21,3.12-6.28l3.25-6.2c1.06-2.07,2.2-4.14,3.06-6.25a1.68,1.68,0,0,0,.12-.36.78.78,0,0,0,0-.34,4.48,4.48,0,0,0-.12-.78,16.9,16.9,0,0,0-.5-1.63c-.4-1.07-.86-2.14-1.35-3.18Z"/><circle class="cls-1" cx="272.09" cy="113.12" r="16.16"/><circle class="cls-1" cx="314.83" cy="139.68" r="16.16"/><path d="M37.52,122l7.66,16.87,7.6,16.9,7.55,16.92,3.75,8.47c.15.37.32.67.47,1.09s.22.77.31,1.16a15.51,15.51,0,0,1,.36,2.35,14.44,14.44,0,0,1-.41,4.76l-.06.2-.19.1-10.35,5.28-10.4,5.21-10.44,5.12c-1.75.84-3.5,1.68-5.26,2.49a53,53,0,0,1-5.44,2.26l-.08,0-.11,0c-3.24-.65-6.54-1.16-9.83-1.66-1.65-.24-3.29-.47-4.94-.68-.83-.1-1.65-.2-2.48-.28a15.38,15.38,0,0,0-2.41-.11L3,208c.77,1.77,1.48,3.55,2.16,5.35S6.53,217,7,218.82L7,218.71c1.13.94,2.34,1.81,3.54,2.69L14.13,224l7.29,5.15-7.4-5-3.68-2.53C9.12,220.8,7.9,220,6.71,219l0,0,0-.06c-.55-1.83-1.25-3.62-1.94-5.41s-1.43-3.55-2.22-5.3l-.17-.38.4,0a16.66,16.66,0,0,1,2.57.08c.83.07,1.67.16,2.5.25,1.65.19,3.31.4,5,.62s3.31.46,5,.71,3.29.51,4.95.85h-.2a53,53,0,0,0,5.28-2.23c1.75-.82,3.5-1.66,5.24-2.5l10.41-5.17,20.75-10.5-.25.3a13.17,13.17,0,0,0,.4-4.43,14,14,0,0,0-.33-2.22,10,10,0,0,0-.29-1.07c-.1-.31-.29-.7-.44-1L59.52,173l-7.39-17-7.34-17Z"/><polygon class="cls-6" points="339.93 447.41 160.39 481.6 209.68 346.27 391.35 314.08 339.93 447.41"/><polyline class="cls-7" points="216.44 367.36 220.24 355.44 230.41 353.36"/><polyline class="cls-7" points="372.54 335.23 377.05 325 368.03 326.89"/><polyline class="cls-7" points="337.45 431.86 333.67 441.46 324.94 443.21"/><polyline class="cls-7" points="195.37 464.97 183.72 466.57 188.28 453.11"/><path class="cls-6" d="M239.48,389c7.75-41.84,79.16-57.54,83.91-11"/><path class="cls-7" d="M318.64,411c-12.34,38.54-71.41,48.86-80.8,13"/><path class="cls-8" d="M318.78,392.2l10.5-1.7,3.58-9.84-11.1,1.79,1.23-3.37,14.58-2.36-11.34,31.16-15.18,2.45,1.23-3.38,11.7-1.89,4.08-11.23-10.49,1.7Z"/><path class="cls-8" d="M306.52,411.06l-3.49.56L308,398.13l-3.29.53c-3.21.64-5.25,2.5-7.61,6.92a78.61,78.61,0,0,1-4.51,7.74l-3.61.58a95.39,95.39,0,0,0,5.2-8.89c1.82-3.34,3.87-5.76,6.25-6.93l.05-.13c-2.44-.65-3.69-3-2.19-7.13a15.26,15.26,0,0,1,4.27-6.26,16.62,16.62,0,0,1,8.74-3.81,30.46,30.46,0,0,1,6.46-.43Zm6.68-27.35a11.25,11.25,0,0,0-3.32.18,10.35,10.35,0,0,0-8.33,6.83c-1.29,3.56.21,5.53,3.94,4.93l3.57-.58Z"/><path class="cls-8" d="M285,414.54l-3.49.56,4.91-13.5-3.28.53c-3.22.65-5.25,2.5-7.61,6.93A79.92,79.92,0,0,1,271,416.8l-3.61.58a96.83,96.83,0,0,0,5.2-8.89c1.82-3.34,3.86-5.76,6.25-6.93l.05-.14c-2.44-.65-3.69-3-2.19-7.12A15.26,15.26,0,0,1,281,388a16.62,16.62,0,0,1,8.74-3.81,29.78,29.78,0,0,1,6.46-.43Zm6.67-27.36a11.71,11.71,0,0,0-3.31.19,10.34,10.34,0,0,0-8.33,6.82c-1.29,3.56.21,5.54,3.94,4.94l3.57-.58Z"/><path class="cls-8" d="M263.87,388.14c7.22-1.16,10.19,4.45,6.59,14.34-3.43,9.43-10.76,16.62-17.9,17.77-6.89,1.11-10.47-3.66-6.56-14.38C249.36,396.62,256.5,389.34,263.87,388.14Zm-1,3.26c-5.81.94-11,7.86-13.22,14.06C247,412.53,248,417.89,253.56,417s10.78-7.35,13.21-14C269.26,396.15,268.61,390.47,262.84,391.4Z"/><path class="cls-8" d="M235.69,422.5l-3.49.56,4.92-13.5-3.29.53c-3.22.65-5.25,2.5-7.61,6.93a78.61,78.61,0,0,1-4.51,7.74l-3.61.58a95.39,95.39,0,0,0,5.2-8.89c1.82-3.34,3.86-5.76,6.25-6.93l0-.13c-2.44-.65-3.69-3-2.19-7.13a15.26,15.26,0,0,1,4.27-6.26,16.62,16.62,0,0,1,8.74-3.81,30.39,30.39,0,0,1,6.46-.43Zm6.67-27.36a11.71,11.71,0,0,0-3.31.19,10.35,10.35,0,0,0-8.33,6.83c-1.29,3.56.21,5.53,3.94,4.93l3.57-.58Z"/></svg>